<svg id="Layer_1" data-name="Layer 1" xmlns="http://www.w3.org/2000/svg" viewBox="0 0 50 50"><defs><style>.cls-1{fill:#40352f;}.cls-2{fill:#1989b6;}</style></defs><title>iconosroppppa</title><path class="cls-1" d="M35.09,20.51v26a.54.54,0,0,1-.54.54H26.31a.55.55,0,0,1-.55-.54c0-.19,0-15.62-.76-25.63-.75,10-.76,25.44-.76,25.63a.54.54,0,0,1-.55.54H15.45a.54.54,0,0,1-.54-.54V20.51a76.64,76.64,0,0,1,1.47-16V2.11a.54.54,0,0,1,.54-.54H33.08a.54.54,0,0,1,.54.54V4.55A76.64,76.64,0,0,1,35.09,20.51ZM34,43.5v-23a88.42,88.42,0,0,0-.79-12l-.43,0a.6.6,0,0,0-.24,0,3.69,3.69,0,0,1-.83-.06l-.13,0h0a3,3,0,0,1-1.51-.69,1.39,1.39,0,0,1-.43-1V5.16h-2.1V9.48a3.27,3.27,0,0,1-.94,2.6,2.09,2.09,0,0,1-1.06.5v3c1,6.68,1.24,21.58,1.29,27.92h5.06c.35,0,.73,0,1.09,0ZM33,7.37c-.16-1-.31-1.79-.4-2.21H30.72V6.61a.3.3,0,0,0,.11.22A3.85,3.85,0,0,0,33,7.37Zm-.5-3.3V2.65H29.85V4.07Zm-3,0V2.65h-4V4.07ZM26.45,9.48V5.16h-.91v6.3a1.12,1.12,0,0,0,.36-.21A2.36,2.36,0,0,0,26.45,9.48Zm-2,6.1V5.16h-4.1V6.61a1.39,1.39,0,0,1-.43,1,3,3,0,0,1-1.51.69h0a.5.5,0,0,0-.13,0h-.12l-.12,0h0c-.17,0-.36,0-.56.06h-.13l-.53,0A88.42,88.42,0,0,0,16,20.51v23h1a2.43,2.43,0,0,0,.44,0l.36,0h.38a.6.6,0,0,0,.24,0h4.71C23.22,37.16,23.45,22.26,24.46,15.58Zm0-11.51V2.65H21.58V4.07Zm-3.16,0V2.65H17.46V4.07Zm-2,2.54V5.16H17.36c-.09.42-.24,1.17-.4,2.21a3.85,3.85,0,0,0,2.21-.54A.28.28,0,0,0,19.27,6.61Z"/><path class="cls-2" d="M34,20.51v23H33c-.36,0-.74,0-1.09,0H26.83c0-6.34-.28-21.24-1.29-27.92v-3a2.09,2.09,0,0,0,1.06-.5,3.27,3.27,0,0,0,.94-2.6V5.16h2.1V6.61a1.39,1.39,0,0,0,.43,1,3,3,0,0,0,1.51.69h0l.13,0a3.69,3.69,0,0,0,.83.06.6.6,0,0,1,.24,0l.43,0A88.42,88.42,0,0,1,34,20.51Z"/><path class="cls-2" d="M32.64,5.16c.09.42.24,1.17.4,2.21a3.85,3.85,0,0,1-2.21-.54.3.3,0,0,1-.11-.22V5.16Z"/><rect class="cls-2" x="29.85" y="2.65" width="2.69" height="1.42"/><rect class="cls-2" x="25.54" y="2.65" width="3.96" height="1.42"/><path class="cls-2" d="M26.45,5.16V9.48a2.36,2.36,0,0,1-.55,1.77,1.12,1.12,0,0,1-.36.21V5.16Z"/><path class="cls-2" d="M24.46,5.16V15.58c-1,6.68-1.24,21.58-1.29,27.92H18.46a.6.6,0,0,1-.24,0h-.38l-.36,0a2.43,2.43,0,0,1-.44,0H16v-23a88.42,88.42,0,0,1,.79-12l.53,0h.13c.2,0,.39,0,.56-.06h0l.12,0h.12a.5.5,0,0,1,.13,0h0a3,3,0,0,0,1.51-.69,1.39,1.39,0,0,0,.43-1V5.16Z"/><rect class="cls-2" x="21.58" y="2.65" width="2.87" height="1.42"/><rect class="cls-2" x="17.46" y="2.65" width="3.83" height="1.42"/><path class="cls-2" d="M19.27,5.16V6.61a.28.28,0,0,1-.1.22A3.85,3.85,0,0,1,17,7.37c.16-1,.31-1.79.4-2.21Z"/></svg>